<?xml version="1.0" encoding="utf-8"?>
<!-- Generator: Adobe Illustrator 18.0.0, SVG Export Plug-In . SVG Version: 6.00 Build 0)  -->
<!DOCTYPE svg PUBLIC "-//W3C//DTD SVG 1.1//EN" "http://www.w3.org/Graphics/SVG/1.1/DTD/svg11.dtd">
<svg version="1.1" id="Layer_1" xmlns="http://www.w3.org/2000/svg" xmlns:xlink="http://www.w3.org/1999/xlink" x="0px" y="0px"
	 width="109.8px" height="89.3px" viewBox="135.2 20.3 29.8 9.3" enable-background="new 135.2 20.3 29.8 9.3" xml:space="preserve">
<g>
	
		<linearGradient id="SVGID_1_" gradientUnits="userSpaceOnUse" x1="232.0759" y1="-425.0306" x2="367.19" y2="-425.0306" gradientTransform="matrix(5.000000e-002 0 0 -5.000000e-002 125 2.5)">
		<stop  offset="0" style="stop-color:#60C280"/>
		<stop  offset="1" style="stop-color:#5CC28C"/>
	</linearGradient>
	<path fill="url(#SVGID_1_)" d="M143.4,21v1.4c-0.1,0-0.1,0.1-0.2,0.1c-0.1,0-0.1,0.1-0.2,0.1c-0.2,0.2-0.4,0.3-0.5,0.6
		c-0.2,0.3-0.3,0.6-0.3,1s0.1,0.7,0.3,1c0.1,0.1,0.1,0.2,0.2,0.3c-0.7,0.5-1.4,1-2.1,1.2c-0.7,0.3-1.5,0.3-2.3,0.2
		c-0.5-0.1-1-0.3-1.3-0.8c-0.4-0.6-0.3-1.1-0.1-1.8c0.2-0.6,0.4-1.2,0.7-1.7c0,0,0,0,0-0.1c0,0,0,0,0,0c0,0,0,0,0,0c0,0,0,0,0,0
		c0.1,0.2,0.1,0.3,0.2,0.5c0-0.2-0.1-0.3-0.1-0.5h0c0,0,0,0,0,0c0,0,0.1,0,0.1,0c0-0.1-0.1-0.1-0.1-0.1c0.2,0,0.3-0.1,0.5-0.2
		c-0.2,0-0.3,0-0.5,0.1l0.1-0.1c0,0,0,0,0,0l0.1,0l2.3-1.8l2,1.6v-1L143.4,21L143.4,21z"/>
</g>
<linearGradient id="SVGID_2_" gradientUnits="userSpaceOnUse" x1="320.6823" y1="-515.8524" x2="196.8805" y2="-392.0505" gradientTransform="matrix(5.000000e-002 0 0 -5.000000e-002 125 2.5)">
	<stop  offset="0" style="stop-color:#60C280"/>
	<stop  offset="1" style="stop-color:#5CC28C"/>
</linearGradient>
<path fill="url(#SVGID_2_)" d="M137.4,22.7C137.4,22.7,137.4,22.7,137.4,22.7C137.3,22.7,137.3,22.7,137.4,22.7
	c-0.2,0.4-0.7,1.1-0.9,1.7h-1.3L137.4,22.7L137.4,22.7L137.4,22.7z"/>
<g>
	
		<linearGradient id="SVGID_3_" gradientUnits="userSpaceOnUse" x1="236.4555" y1="-399.76" x2="265.3337" y2="-399.76" gradientTransform="matrix(5.000000e-002 0 0 -5.000000e-002 125 2.5)">
		<stop  offset="0" style="stop-color:#60C280"/>
		<stop  offset="1" style="stop-color:#5CC28C"/>
	</linearGradient>
	<path fill="url(#SVGID_3_)" d="M138.3,22.3C138.3,22.3,138.2,22.2,138.3,22.3C138.2,22.2,138.2,22.2,138.3,22.3c-0.2,0-0.3,0-0.4,0
		c0,0-0.1,0-0.1,0c0,0,0-0.1,0-0.1c0,0,0,0,0,0c0,0,0,0,0,0c0,0,0,0,0,0c0,0-0.1,0-0.1,0.1c-0.1-0.1-0.1-0.3-0.2-0.4c0,0,0,0-0.1,0
		c0,0,0,0,0,0c0,0-0.1,0,0,0.1c0,0.1,0.1,0.3,0.1,0.4c0,0-0.1,0-0.1,0c0,0,0,0,0,0c0,0,0,0,0,0.1c0,0,0,0,0,0.1
		c-0.1,0-0.3,0.1-0.4,0.1c0,0,0,0.1,0,0.1c0,0,0,0.1,0.1,0.1c0,0,0,0,0,0c0.1,0,0.3,0,0.4-0.1c0,0,0,0,0,0.1c0,0,0,0,0,0
		c0,0,0,0,0,0c0,0,0,0,0,0c0,0,0-0.1,0-0.1v0c-0.2,0-0.3,0.1-0.5,0.1c0.2-0.1,0.3-0.1,0.5-0.2c0,0-0.1-0.1-0.1-0.1
		c0.1,0,0.1,0,0.1,0c0,0,0,0,0,0c0,0,0,0,0,0c-0.1-0.2-0.1-0.3-0.1-0.5c0.1,0.2,0.2,0.3,0.2,0.5c0,0,0,0,0,0c0,0,0.1-0.1,0.2-0.1
		c0,0.1,0,0.1,0,0.2v0c0,0,0,0,0,0C137.9,22.4,138,22.3,138.3,22.3c-0.2,0.1-0.4,0.1-0.5,0.2c0,0,0.1,0.1,0.1,0.1
		c-0.1,0-0.1,0-0.1,0c0,0,0,0,0,0h0c0.1,0.2,0.1,0.3,0.1,0.5c-0.1-0.2-0.2-0.3-0.2-0.5c0,0,0,0,0,0c0,0,0,0,0,0c0,0,0,0,0,0
		c0,0,0,0,0,0.1c0,0,0.1,0,0.1,0c0.1,0.1,0.1,0.3,0.2,0.4c0,0,0,0,0.1,0c0,0,0,0,0,0c0,0,0.1,0,0-0.1c0-0.1-0.1-0.3-0.1-0.4
		c0,0,0.1,0,0.1,0c0,0,0,0,0,0c0,0,0,0,0-0.1c0,0,0,0,0-0.1C138,22.5,138.1,22.4,138.3,22.3C138.3,22.4,138.3,22.3,138.3,22.3z"/>
</g>
<g>
	<path fill="#62C691" d="M137,21.3c0.2-0.1,0.4-0.2,0.6-0.2c0.2-0.1,0.4-0.1,0.7-0.1c-0.2,0.1-0.4,0.2-0.6,0.2
		C137.5,21.2,137.3,21.2,137,21.3z"/>
	<path fill="#62C691" d="M137.9,21.7c-0.1-0.2-0.2-0.4-0.3-0.6c-0.1-0.2-0.2-0.4-0.2-0.6c0.1,0.2,0.2,0.4,0.3,0.6
		C137.8,21.3,137.9,21.5,137.9,21.7z"/>
	<path fill="#62C691" d="M137.5,21.4c0-0.1,0-0.1,0-0.2c0-0.1,0-0.1,0.1-0.1c0,0,0.1-0.1,0.1-0.1c0,0,0.1-0.1,0.2-0.1
		c0,0.1,0,0.1,0,0.2c0,0.1,0,0.1-0.1,0.1c0,0-0.1,0.1-0.1,0.1C137.6,21.3,137.6,21.3,137.5,21.4z"/>
	<path fill="#62C691" d="M138,21.2c-0.1,0-0.1,0-0.2,0c-0.1,0-0.1,0-0.2,0c0,0-0.1,0-0.1-0.1c0,0-0.1-0.1-0.1-0.1c0.1,0,0.1,0,0.2,0
		c0.1,0,0.1,0,0.2,0s0.1,0,0.1,0.1C137.9,21.1,137.9,21.1,138,21.2z"/>
</g>
<g>
	<path fill="#62C691" d="M135.6,22c0.2-0.1,0.4-0.2,0.6-0.2c0.2-0.1,0.4-0.1,0.7-0.1c-0.2,0.1-0.4,0.2-0.6,0.2
		C136,22,135.8,22,135.6,22z"/>
	<path fill="#62C691" d="M136.5,22.5c-0.1-0.2-0.2-0.4-0.3-0.6c-0.1-0.2-0.2-0.4-0.2-0.6c0.1,0.2,0.2,0.4,0.3,0.6
		C136.3,22.1,136.4,22.3,136.5,22.5z"/>
	<path fill="#62C691" d="M136.1,22.1c0-0.1,0-0.1,0-0.2c0-0.1,0-0.1,0.1-0.1c0,0,0.1-0.1,0.1-0.1c0,0,0.1-0.1,0.2-0.1
		c0,0.1,0,0.1,0,0.2c0,0.1,0,0.1-0.1,0.1c0,0-0.1,0.1-0.1,0.1C136.2,22.1,136.1,22.1,136.1,22.1z"/>
	<path fill="#62C691" d="M136.5,22c-0.1,0-0.1,0-0.2,0c-0.1,0-0.1,0-0.2,0c0,0-0.1,0-0.1-0.1c0,0-0.1-0.1-0.1-0.1c0.1,0,0.1,0,0.2,0
		c0.1,0,0.1,0,0.2,0c0,0,0.1,0,0.1,0.1C136.4,21.9,136.5,21.9,136.5,22z"/>
</g>
<path fill="#FFFFFF" d="M139.9,22.7c-0.2,0-0.3,0.1-0.5,0.1c-0.1,0-0.2,0-0.3,0.1c0,0,0,0,0,0c0-0.1,0-0.2,0-0.3
	c-0.1,0-0.2,0.1-0.2,0.1c0,0,0,0,0,0c0-0.1-0.1-0.2-0.1-0.3c-0.1-0.2-0.2-0.3-0.2-0.5c0,0.2,0.1,0.3,0.1,0.5c0,0.1,0.1,0.2,0.1,0.2
	c0,0,0,0,0,0c-0.1,0-0.2,0-0.3,0c0,0.1,0.1,0.1,0.1,0.2c-0.1,0-0.2,0-0.2,0.1c-0.2,0.1-0.3,0.1-0.5,0.2c0.2,0,0.3-0.1,0.5-0.1
	c0.1,0,0.2,0,0.3-0.1c0,0,0,0,0,0c0,0.1,0,0.2,0,0.3c0.1,0,0.2-0.1,0.2-0.1c0,0,0,0,0,0c0,0.1,0.1,0.2,0.1,0.3
	c0.1,0.2,0.2,0.3,0.2,0.5c0-0.2-0.1-0.3-0.1-0.5c0-0.1-0.1-0.2-0.1-0.2c0,0,0,0,0,0c0.1,0,0.2,0,0.3,0c0-0.1-0.1-0.1-0.1-0.2
	c0.1,0,0.2,0,0.2-0.1C139.6,22.8,139.8,22.7,139.9,22.7z"/>
<linearGradient id="SVGID_4_" gradientUnits="userSpaceOnUse" x1="352.9199" y1="-483.6148" x2="229.1183" y2="-359.8132" gradientTransform="matrix(5.000000e-002 0 0 -5.000000e-002 125 2.5)">
	<stop  offset="0" style="stop-color:#60C280"/>
	<stop  offset="1" style="stop-color:#5CC28C"/>
</linearGradient>
<path fill="url(#SVGID_4_)" d="M138.5,22c0.1,0.2,0.2,0.3,0.2,0.5c0,0.1,0.1,0.2,0.1,0.3c0,0,0,0,0,0c0.1-0.1,0.1-0.1,0.2-0.1
	c0,0.1,0,0.2,0,0.3c0,0,0,0,0,0c0.1,0,0.2,0,0.3-0.1c0.2,0,0.3-0.1,0.5-0.1c-0.2,0.1-0.3,0.1-0.5,0.2c-0.1,0-0.2,0.1-0.2,0.1
	c0.1,0.1,0.1,0.1,0.1,0.2c-0.1,0-0.1,0-0.2,0c0,0,0,0-0.1,0c0,0,0,0,0,0c0,0.1,0.1,0.2,0.1,0.2c0.1,0.2,0.1,0.3,0.1,0.5
	c-0.1-0.2-0.2-0.3-0.2-0.5c0-0.1-0.1-0.2-0.1-0.3c0,0,0,0,0,0c-0.1,0.1-0.1,0.1-0.2,0.1c0-0.1,0-0.2,0-0.3c0,0,0,0,0,0
	c-0.1,0-0.2,0-0.3,0.1c-0.2,0-0.3,0.1-0.5,0.1c0.2-0.1,0.3-0.1,0.5-0.2c0.1,0,0.2-0.1,0.2-0.1c-0.1-0.1-0.1-0.1-0.1-0.2
	c0.1,0,0.1,0,0.2,0c0,0,0,0,0.1,0c0,0,0,0,0,0c0-0.1-0.1-0.2-0.1-0.2C138.6,22.3,138.6,22.1,138.5,22 M138.5,21.9
	C138.5,21.9,138.5,21.9,138.5,21.9C138.5,21.9,138.5,22,138.5,21.9c0,0.2,0,0.4,0.1,0.6c0,0.1,0,0.1,0.1,0.2h0c-0.1,0-0.2,0-0.2,0
	c0,0,0,0,0,0c0,0,0,0,0,0c0,0.1,0.1,0.1,0.1,0.2c-0.1,0-0.1,0-0.2,0.1c-0.2,0.1-0.4,0.1-0.5,0.2c0,0,0,0,0,0c0,0,0,0,0,0
	c0,0,0,0,0,0c0.2,0,0.3,0,0.5-0.1c0.1,0,0.1,0,0.2,0c0,0.1,0,0.1,0,0.2c0,0,0,0,0,0c0,0,0,0,0,0c0,0,0,0,0,0c0.1,0,0.2-0.1,0.2-0.1
	c0,0.1,0.1,0.1,0.1,0.2c0.1,0.2,0.2,0.3,0.2,0.5c0,0,0,0,0,0c0,0,0,0,0,0c0,0,0,0,0,0c0-0.2-0.1-0.3-0.1-0.5c0-0.1,0-0.1-0.1-0.2
	c0,0,0,0,0,0c0.1,0,0.2,0,0.2,0c0,0,0,0,0,0c0,0,0,0,0,0c0-0.1-0.1-0.1-0.1-0.2c0.1,0,0.1,0,0.2-0.1c0.2-0.1,0.4-0.1,0.5-0.2
	c0,0,0,0,0-0.1c0,0,0,0,0,0c0,0,0,0,0,0c-0.2,0-0.3,0-0.5,0.1c-0.1,0-0.1,0-0.2,0c0-0.1,0-0.1,0-0.2c0,0,0,0,0,0c0,0,0,0,0,0
	c0,0,0,0,0,0c-0.1,0-0.2,0.1-0.2,0.1c0-0.1-0.1-0.1-0.1-0.2C138.7,22.2,138.6,22.1,138.5,21.9C138.5,21.9,138.5,21.9,138.5,21.9
	L138.5,21.9z"/>
<g>
	<rect x="138.6" y="24.1" fill="#FFFFFF" width="0.8" height="0.8"/>
	<rect x="139.6" y="25.2" fill="#FFFFFF" width="0.8" height="0.8"/>
	<rect x="138.6" y="25.2" fill="#FFFFFF" width="0.8" height="0.8"/>
	<rect x="139.6" y="24.1" fill="#FFFFFF" width="0.8" height="0.8"/>
</g>
<linearGradient id="SVGID_5_" gradientUnits="userSpaceOnUse" x1="203.477" y1="-500.8351" x2="380.8781" y2="-500.8351" gradientTransform="matrix(5.000000e-002 0 0 -5.000000e-002 125 2.5)">
	<stop  offset="0" style="stop-color:#60C280"/>
	<stop  offset="1" style="stop-color:#5CC28C"/>
</linearGradient>
<path fill="url(#SVGID_5_)" d="M143.1,26.3c0,0,0,0.1,0,0.1c0,0.2-0.1,0.5-0.2,0.7c-0.2,0.4-0.4,0.9-0.8,1.2l-0.1,0.1l0,0
	c0,0,0,0,0,0l-0.1,0.1c0,0-0.1,0.1-0.2,0.1c0,0-0.1,0-0.1,0.1c0,0-0.1,0-0.1,0.1c-0.2,0.1-0.5,0.3-0.7,0.4c-0.5,0.2-1,0.3-1.5,0.3
	l-0.2,0c-0.1,0-0.1,0-0.2,0c-0.1,0-0.1,0-0.2,0l-0.1,0c0,0-0.1,0-0.1,0c-0.1,0-0.1,0-0.2,0c0,0-0.1,0-0.1,0l-0.1,0
	c-0.1,0-0.1,0-0.2,0c0,0-0.1,0-0.1,0l-0.1,0c-0.3-0.1-0.5-0.2-0.7-0.3c-0.1,0-0.1-0.1-0.2-0.1c-0.1,0-0.1-0.1-0.2-0.1c0,0,0,0,0,0
	l0,0l-0.1-0.1c0,0-0.1,0-0.1-0.1l-0.1-0.1l-0.1-0.1c0,0,0-0.1-0.1-0.1c0-0.1-0.1-0.1-0.1-0.2c-0.1-0.1-0.1-0.2-0.2-0.4
	c-0.1-0.3-0.2-0.5-0.2-0.8c0-0.3,0-0.5,0.1-0.7c0-0.1,0.1-0.2,0.1-0.3c0.1-0.1,0.1-0.2,0.2-0.3c0,0.1,0.1,0.2,0.1,0.3
	c0,0.1,0.1,0.2,0.1,0.3c0.1,0.2,0.2,0.4,0.3,0.5c0.1,0.1,0.2,0.3,0.3,0.4c0.1,0.1,0.2,0.2,0.4,0.2l0,0c0,0,0,0,0,0l0,0l0,0
	c0,0,0,0,0,0c0,0,0.1,0,0.1,0c0,0,0.1,0,0.1,0c0,0,0.1,0,0.1,0c0,0,0,0,0.1,0l0,0c0,0,0,0,0,0c0.1,0,0.1,0,0.2,0c0,0,0.1,0,0.1,0
	c0,0,0.1,0,0.1,0l0.1,0c0,0,0,0,0.1,0c0,0,0.1,0,0.1,0c0,0,0,0,0.1,0l0.1,0c0,0,0.1,0,0.1,0c0,0,0,0,0.1,0l0.1,0l0.1,0
	c0.7,0,1.3-0.1,1.9-0.4l0.1,0c0,0,0,0,0.1,0l0.1,0l0,0l0,0l0.1-0.1c0,0,0.1,0,0.1-0.1c0.2-0.1,0.3-0.2,0.5-0.3
	c0.2-0.1,0.3-0.2,0.5-0.4c0,0,0,0,0.1-0.1c-0.1,0.1-0.1,0.2-0.2,0.3c-0.2,0.3-0.4,0.6-0.6,0.8c-0.2,0.2-0.5,0.5-0.8,0.6
	c-0.3,0.2-0.6,0.3-0.9,0.4c-0.2,0-0.3,0.1-0.5,0.1l-0.1,0l-0.1,0l-0.1,0c0,0,0,0-0.1,0c-0.1,0-0.2,0-0.3,0c-0.3,0-0.7,0-1-0.1
	c-0.3-0.1-0.7-0.2-0.9-0.5c-0.3-0.2-0.5-0.5-0.7-0.8c0.2,0.3,0.4,0.6,0.7,0.8c0.3,0.2,0.6,0.4,0.9,0.5c0.3,0.1,0.7,0.2,1.1,0.2
	c0.1,0,0.2,0,0.3,0c0,0,0,0,0.1,0l0.1,0l0.1,0l0.1,0c0.2,0,0.4,0,0.5-0.1c0.4-0.1,0.7-0.2,1-0.4c0.3-0.2,0.6-0.4,0.9-0.6
	c0.3-0.3,0.5-0.5,0.7-0.8C143,26.6,143,26.4,143.1,26.3z"/>
<g>
	<g>
		
			<image overflow="visible" enable-background="new    " width="579" height="600" xlink:href="5BD2FB8D.png"  transform="matrix(1.189637e-002 0 0 1.192000e-002 138.728 18.876)">
		</image>
	</g>
	<g>
		
			<image overflow="visible" enable-background="new    " width="579" height="600" xlink:href="5BD2FB8F.png"  transform="matrix(1.189637e-002 0 0 1.192000e-002 138.728 18.876)">
		</image>
	</g>
	<g opacity="0.75">
		
			<image overflow="visible" enable-background="new    " width="579" height="600" xlink:href="5BD2FB8A.png"  transform="matrix(1.189637e-002 0 0 1.192000e-002 138.728 18.876)">
		</image>
	</g>
	<g>
		
			<image overflow="visible" enable-background="new    " width="579" height="600" xlink:href="5BD2FB8B.png"  transform="matrix(1.189637e-002 0 0 1.192000e-002 138.728 18.876)">
		</image>
	</g>
	<g opacity="0.25">
		
			<image overflow="visible" enable-background="new    " width="671" height="642" xlink:href="5BD2FB95.png"  transform="matrix(1.196423e-002 0 0 1.196262e-002 138.152 18.612)">
		</image>
	</g>
</g>
<g>
	<g>
		<g>
			
				<linearGradient id="SVGID_6_" gradientUnits="userSpaceOnUse" x1="366.1" y1="-425.925" x2="394.3" y2="-425.925" gradientTransform="matrix(5.000000e-002 0 0 -5.000000e-002 125 2.5)">
				<stop  offset="0" style="stop-color:#60C280"/>
				<stop  offset="1" style="stop-color:#5CC28C"/>
			</linearGradient>
			<path fill="url(#SVGID_6_)" d="M143.3,22.8h0.4v1.7h1v0.3h-1.4V22.8z"/>
			
				<linearGradient id="SVGID_7_" gradientUnits="userSpaceOnUse" x1="396.7" y1="-430.6801" x2="427.74" y2="-430.6801" gradientTransform="matrix(5.000000e-002 0 0 -5.000000e-002 125 2.5)">
				<stop  offset="0" style="stop-color:#60C280"/>
				<stop  offset="1" style="stop-color:#5CC28C"/>
			</linearGradient>
			<path fill="url(#SVGID_7_)" d="M146.4,24.1h-1.2c0,0.1,0.1,0.2,0.2,0.3c0.1,0.1,0.2,0.1,0.3,0.1c0.2,0,0.3-0.1,0.4-0.2l0.2,0.2
				c-0.1,0.1-0.2,0.1-0.3,0.2c-0.1,0-0.2,0.1-0.4,0.1c-0.2,0-0.3,0-0.4-0.1c-0.1-0.1-0.2-0.2-0.3-0.3s-0.1-0.3-0.1-0.4
				c0-0.1,0-0.3,0.1-0.4s0.2-0.2,0.3-0.3c0.1-0.1,0.3-0.1,0.4-0.1c0.1,0,0.3,0,0.4,0.1s0.2,0.2,0.3,0.3c0.1,0.1,0.1,0.3,0.1,0.4
				C146.4,24.1,146.4,24.1,146.4,24.1z M145.3,23.6c-0.1,0.1-0.1,0.2-0.1,0.3h0.9c0-0.1-0.1-0.2-0.1-0.3c-0.1-0.1-0.2-0.1-0.3-0.1
				C145.5,23.5,145.4,23.6,145.3,23.6z"/>
			
				<linearGradient id="SVGID_8_" gradientUnits="userSpaceOnUse" x1="448.08" y1="-425.93" x2="485.16" y2="-425.93" gradientTransform="matrix(5.000000e-002 0 0 -5.000000e-002 125 2.5)">
				<stop  offset="0" style="stop-color:#60C280"/>
				<stop  offset="1" style="stop-color:#5CC28C"/>
			</linearGradient>
			<path fill="url(#SVGID_8_)" d="M147.9,24.7c-0.2-0.1-0.3-0.2-0.4-0.4c-0.1-0.2-0.1-0.3-0.1-0.5c0-0.2,0-0.4,0.1-0.5
				s0.2-0.3,0.4-0.4c0.2-0.1,0.3-0.1,0.5-0.1c0.2,0,0.3,0,0.4,0.1c0.1,0.1,0.2,0.1,0.3,0.2l-0.2,0.2c-0.1-0.2-0.3-0.2-0.5-0.2
				c-0.1,0-0.3,0-0.4,0.1c-0.1,0.1-0.2,0.1-0.3,0.2c-0.1,0.1-0.1,0.2-0.1,0.4s0,0.3,0.1,0.4c0.1,0.1,0.1,0.2,0.3,0.2
				s0.2,0.1,0.4,0.1c0.2,0,0.4-0.1,0.5-0.2l0.2,0.2c-0.1,0.1-0.2,0.2-0.3,0.2c-0.1,0.1-0.3,0.1-0.4,0.1
				C148.3,24.8,148.1,24.8,147.9,24.7z"/>
			
				<linearGradient id="SVGID_9_" gradientUnits="userSpaceOnUse" x1="491.58" y1="-424.73" x2="521.49" y2="-424.73" gradientTransform="matrix(5.000000e-002 0 0 -5.000000e-002 125 2.5)">
				<stop  offset="0" style="stop-color:#60C280"/>
				<stop  offset="1" style="stop-color:#5CC28C"/>
			</linearGradient>
			<path fill="url(#SVGID_9_)" d="M150.9,23.4c0.1,0.1,0.2,0.3,0.2,0.5v0.9h-0.4V24c0-0.1,0-0.2-0.1-0.3c-0.1-0.1-0.2-0.1-0.3-0.1
				c-0.1,0-0.2,0-0.3,0.1c-0.1,0.1-0.1,0.2-0.1,0.3v0.8h-0.4v-2.1h0.4v0.8c0.1-0.1,0.1-0.1,0.2-0.1c0.1,0,0.2,0,0.3,0
				C150.6,23.3,150.8,23.3,150.9,23.4z"/>
			
				<linearGradient id="SVGID_10_" gradientUnits="userSpaceOnUse" x1="529.56" y1="-423.885" x2="538.66" y2="-423.885" gradientTransform="matrix(5.000000e-002 0 0 -5.000000e-002 125 2.5)">
				<stop  offset="0" style="stop-color:#60C280"/>
				<stop  offset="1" style="stop-color:#5CC28C"/>
			</linearGradient>
			<path fill="url(#SVGID_10_)" d="M151.5,23c0,0-0.1-0.1-0.1-0.2c0-0.1,0-0.1,0.1-0.2c0,0,0.1-0.1,0.2-0.1s0.1,0,0.2,0.1
				c0,0,0.1,0.1,0.1,0.1c0,0.1,0,0.1-0.1,0.2c0,0-0.1,0.1-0.2,0.1C151.6,23,151.6,23,151.5,23z M151.5,23.3h0.4v1.5h-0.4V23.3z"/>
			
				<linearGradient id="SVGID_11_" gradientUnits="userSpaceOnUse" x1="542.92" y1="-424.55" x2="565.2" y2="-424.55" gradientTransform="matrix(5.000000e-002 0 0 -5.000000e-002 125 2.5)">
				<stop  offset="0" style="stop-color:#60C280"/>
				<stop  offset="1" style="stop-color:#5CC28C"/>
			</linearGradient>
			<path fill="url(#SVGID_11_)" d="M152.7,23.2L152.7,23.2l0.4,0.1v0.3h-0.4v1.2h-0.4v-1.2h-0.3v-0.3h0.3v-0.1c0-0.2,0-0.3,0.1-0.4
				c0.1-0.1,0.2-0.1,0.4-0.1c0.1,0,0.2,0,0.3,0.1l-0.1,0.3c-0.1,0-0.1-0.1-0.2-0.1C152.8,22.9,152.7,23,152.7,23.2z"/>
			
				<linearGradient id="SVGID_12_" gradientUnits="userSpaceOnUse" x1="563.9" y1="-424.55" x2="586.1801" y2="-424.55" gradientTransform="matrix(5.000000e-002 0 0 -5.000000e-002 125 2.5)">
				<stop  offset="0" style="stop-color:#60C280"/>
				<stop  offset="1" style="stop-color:#5CC28C"/>
			</linearGradient>
			<path fill="url(#SVGID_12_)" d="M153.8,23.2L153.8,23.2l0.4,0.1v0.3h-0.4v1.2h-0.4v-1.2h-0.3v-0.3h0.3v-0.1c0-0.2,0-0.3,0.1-0.4
				c0.1-0.1,0.2-0.1,0.4-0.1c0.1,0,0.2,0,0.3,0.1l-0.1,0.3c-0.1,0-0.1-0.1-0.2-0.1C153.9,22.9,153.8,23,153.8,23.2z"/>
			
				<linearGradient id="SVGID_13_" gradientUnits="userSpaceOnUse" x1="585.96" y1="-430.675" x2="618.32" y2="-430.675" gradientTransform="matrix(5.000000e-002 0 0 -5.000000e-002 125 2.5)">
				<stop  offset="0" style="stop-color:#60C280"/>
				<stop  offset="1" style="stop-color:#5CC28C"/>
			</linearGradient>
			<path fill="url(#SVGID_13_)" d="M154.7,24.7c-0.1-0.1-0.2-0.2-0.3-0.3s-0.1-0.3-0.1-0.4c0-0.1,0-0.3,0.1-0.4
				c0.1-0.1,0.2-0.2,0.3-0.3s0.3-0.1,0.4-0.1c0.2,0,0.3,0,0.4,0.1c0.1,0.1,0.2,0.2,0.3,0.3c0.1,0.1,0.1,0.3,0.1,0.4
				c0,0.1,0,0.3-0.1,0.4c-0.1,0.1-0.2,0.2-0.3,0.3c-0.1,0.1-0.3,0.1-0.4,0.1C155,24.8,154.8,24.8,154.7,24.7z M155.4,24.4
				c0.1-0.1,0.1-0.2,0.1-0.3c0-0.1,0-0.3-0.1-0.3c-0.1-0.1-0.2-0.1-0.3-0.1c-0.1,0-0.2,0-0.3,0.1c-0.1,0.1-0.1,0.2-0.1,0.3
				c0,0.1,0,0.3,0.1,0.3c0.1,0.1,0.2,0.1,0.3,0.1C155.2,24.5,155.3,24.5,155.4,24.4z"/>
			
				<linearGradient id="SVGID_14_" gradientUnits="userSpaceOnUse" x1="625.1299" y1="-430.475" x2="655.04" y2="-430.475" gradientTransform="matrix(5.000000e-002 0 0 -5.000000e-002 125 2.5)">
				<stop  offset="0" style="stop-color:#60C280"/>
				<stop  offset="1" style="stop-color:#5CC28C"/>
			</linearGradient>
			<path fill="url(#SVGID_14_)" d="M157.6,23.4c0.1,0.1,0.2,0.3,0.2,0.5v0.9h-0.4V24c0-0.1,0-0.2-0.1-0.3c-0.1-0.1-0.2-0.1-0.3-0.1
				c-0.1,0-0.2,0-0.3,0.1c-0.1,0.1-0.1,0.2-0.1,0.3v0.8h-0.4v-1.5h0.3v0.2c0.1-0.1,0.1-0.1,0.2-0.2c0.1,0,0.2-0.1,0.3-0.1
				C157.3,23.3,157.5,23.3,157.6,23.4z"/>
			
				<linearGradient id="SVGID_15_" gradientUnits="userSpaceOnUse" x1="674.8199" y1="-425.93" x2="716.84" y2="-425.93" gradientTransform="matrix(5.000000e-002 0 0 -5.000000e-002 125 2.5)">
				<stop  offset="0" style="stop-color:#60C280"/>
				<stop  offset="1" style="stop-color:#5CC28C"/>
			</linearGradient>
			<path fill="url(#SVGID_15_)" d="M160.8,22.8l-0.9,2h-0.4l-0.9-2h0.4l0.7,1.5l0.7-1.5H160.8z"/>
			
				<linearGradient id="SVGID_16_" gradientUnits="userSpaceOnUse" x1="715.6" y1="-430.6801" x2="746.6401" y2="-430.6801" gradientTransform="matrix(5.000000e-002 0 0 -5.000000e-002 125 2.5)">
				<stop  offset="0" style="stop-color:#60C280"/>
				<stop  offset="1" style="stop-color:#5CC28C"/>
			</linearGradient>
			<path fill="url(#SVGID_16_)" d="M162.3,24.1h-1.2c0,0.1,0.1,0.2,0.2,0.3c0.1,0.1,0.2,0.1,0.3,0.1c0.2,0,0.3-0.1,0.4-0.2l0.2,0.2
				c-0.1,0.1-0.2,0.1-0.3,0.2c-0.1,0-0.2,0.1-0.4,0.1c-0.2,0-0.3,0-0.4-0.1c-0.1-0.1-0.2-0.2-0.3-0.3s-0.1-0.3-0.1-0.4
				c0-0.1,0-0.3,0.1-0.4c0.1-0.1,0.2-0.2,0.3-0.3c0.1-0.1,0.3-0.1,0.4-0.1c0.1,0,0.3,0,0.4,0.1s0.2,0.2,0.3,0.3s0.1,0.3,0.1,0.4
				C162.3,24.1,162.3,24.1,162.3,24.1z M161.3,23.6c-0.1,0.1-0.1,0.2-0.1,0.3h0.9c0-0.1-0.1-0.2-0.1-0.3c-0.1-0.1-0.2-0.1-0.3-0.1
				C161.5,23.5,161.4,23.6,161.3,23.6z"/>
			
				<linearGradient id="SVGID_17_" gradientUnits="userSpaceOnUse" x1="753.46" y1="-430.485" x2="771.03" y2="-430.485" gradientTransform="matrix(5.000000e-002 0 0 -5.000000e-002 125 2.5)">
				<stop  offset="0" style="stop-color:#60C280"/>
				<stop  offset="1" style="stop-color:#5CC28C"/>
			</linearGradient>
			<path fill="url(#SVGID_17_)" d="M163.6,23.3v0.3c0,0-0.1,0-0.1,0c-0.1,0-0.2,0-0.3,0.1c-0.1,0.1-0.1,0.2-0.1,0.3v0.7h-0.4v-1.5
				h0.3v0.2C163.1,23.3,163.3,23.3,163.6,23.3z"/>
			
				<linearGradient id="SVGID_18_" gradientUnits="userSpaceOnUse" x1="774.16" y1="-427.49" x2="796.44" y2="-427.49" gradientTransform="matrix(5.000000e-002 0 0 -5.000000e-002 125 2.5)">
				<stop  offset="0" style="stop-color:#60C280"/>
				<stop  offset="1" style="stop-color:#5CC28C"/>
			</linearGradient>
			<path fill="url(#SVGID_18_)" d="M164.8,24.7c0,0-0.1,0.1-0.2,0.1c-0.1,0-0.1,0-0.2,0c-0.2,0-0.3,0-0.4-0.1
				c-0.1-0.1-0.1-0.2-0.1-0.4v-0.7h-0.3v-0.3h0.3v-0.3h0.4v0.3h0.4v0.3h-0.4v0.7c0,0.1,0,0.1,0.1,0.2c0,0,0.1,0.1,0.2,0.1
				c0.1,0,0.1,0,0.2-0.1L164.8,24.7z"/>
		</g>
		<g>
			<path fill="#425D74" d="M144.2,25.4c0,0,0.1,0.1,0.1,0.2v0.3h-0.1v-0.3c0-0.1,0-0.1,0-0.1c0,0-0.1,0-0.1,0c0,0-0.1,0-0.1,0
				c0,0,0,0.1,0,0.1v0.3h-0.1v-0.3c0-0.1,0-0.1,0-0.1c0,0-0.1,0-0.1,0c0,0-0.1,0-0.1,0s0,0.1,0,0.1v0.3h-0.1v-0.6h0.1v0.1
				c0,0,0.1,0,0.1-0.1c0,0,0.1,0,0.1,0c0,0,0.1,0,0.1,0s0.1,0,0.1,0.1c0,0,0.1-0.1,0.1-0.1s0.1,0,0.1,0
				C144.1,25.3,144.2,25.3,144.2,25.4z"/>
			<path fill="#425D74" d="M145.1,25.7h-0.5c0,0,0,0.1,0.1,0.1s0.1,0,0.1,0c0.1,0,0.1,0,0.2-0.1l0.1,0.1c0,0-0.1,0.1-0.1,0.1
				s-0.1,0-0.1,0c-0.1,0-0.1,0-0.2,0s-0.1-0.1-0.1-0.1c0,0,0-0.1,0-0.2c0-0.1,0-0.1,0-0.2c0,0,0.1-0.1,0.1-0.1c0,0,0.1,0,0.2,0
				c0.1,0,0.1,0,0.2,0s0.1,0.1,0.1,0.1C145.1,25.5,145.1,25.6,145.1,25.7C145.1,25.6,145.1,25.7,145.1,25.7z M144.7,25.5
				c0,0,0,0.1-0.1,0.1h0.3c0,0,0-0.1-0.1-0.1c0,0-0.1,0-0.1,0C144.8,25.4,144.7,25.4,144.7,25.5z M144.9,25.1h0.2l-0.2,0.2h-0.1
				L144.9,25.1z"/>
			<path fill="#425D74" d="M145.8,25.4c0,0,0.1,0.1,0.1,0.2v0.3h-0.1v-0.3c0-0.1,0-0.1,0-0.1c0,0-0.1,0-0.1,0c-0.1,0-0.1,0-0.1,0
				c0,0,0,0.1,0,0.1v0.3h-0.1v-0.6h0.1v0.1c0,0,0.1,0,0.1-0.1c0,0,0.1,0,0.1,0C145.7,25.3,145.8,25.3,145.8,25.4z"/>
			<path fill="#425D74" d="M146.6,25.4c0,0,0.1,0.1,0.1,0.2v0.3h-0.1v-0.1c0,0,0,0-0.1,0.1c0,0-0.1,0-0.1,0c0,0-0.1,0-0.1,0
				c0,0-0.1,0-0.1-0.1c0,0,0-0.1,0-0.1c0-0.1,0-0.1,0.1-0.1c0,0,0.1,0,0.2,0h0.2v0c0,0,0-0.1,0-0.1c0,0-0.1,0-0.1,0c0,0-0.1,0-0.1,0
				c0,0-0.1,0-0.1,0l-0.1-0.1c0,0,0.1,0,0.1-0.1c0,0,0.1,0,0.1,0C146.5,25.3,146.5,25.3,146.6,25.4z M146.4,25.8
				C146.5,25.8,146.5,25.8,146.4,25.8l0.1-0.1h-0.1c-0.1,0-0.1,0-0.1,0.1c0,0,0,0,0,0.1C146.3,25.8,146.3,25.8,146.4,25.8
				C146.4,25.8,146.4,25.8,146.4,25.8z"/>
			<path fill="#425D74" d="M147.5,25.3v0.5c0,0.2-0.1,0.3-0.3,0.3c-0.1,0-0.1,0-0.2,0c-0.1,0-0.1,0-0.1-0.1l0.1-0.1
				c0,0,0.1,0,0.1,0.1c0,0,0.1,0,0.1,0c0.1,0,0.1,0,0.1,0s0-0.1,0-0.1v0c0,0-0.1,0-0.1,0.1c0,0-0.1,0-0.1,0c-0.1,0-0.1,0-0.2,0
				c0,0-0.1-0.1-0.1-0.1c0,0,0-0.1,0-0.1c0-0.1,0-0.1,0-0.1c0,0,0.1-0.1,0.1-0.1c0,0,0.1,0,0.2,0c0,0,0.1,0,0.1,0c0,0,0.1,0,0.1,0.1
				v-0.1L147.5,25.3L147.5,25.3z M147.3,25.7c0,0,0.1-0.1,0.1-0.1c0,0,0-0.1-0.1-0.1c0,0-0.1,0-0.1,0c-0.1,0-0.1,0-0.1,0
				c0,0-0.1,0.1-0.1,0.1c0,0.1,0,0.1,0.1,0.1c0,0,0.1,0,0.1,0C147.2,25.8,147.3,25.8,147.3,25.7z"/>
			<path fill="#425D74" d="M148.3,25.7h-0.5c0,0,0,0.1,0.1,0.1s0.1,0,0.1,0c0.1,0,0.1,0,0.2-0.1l0.1,0.1c0,0-0.1,0.1-0.1,0.1
				s-0.1,0-0.1,0c-0.1,0-0.1,0-0.2,0s-0.1-0.1-0.1-0.1c0,0,0-0.1,0-0.2c0-0.1,0-0.1,0-0.2s0.1-0.1,0.1-0.1c0,0,0.1,0,0.2,0
				c0.1,0,0.1,0,0.2,0s0.1,0.1,0.1,0.1C148.3,25.5,148.3,25.6,148.3,25.7C148.3,25.6,148.3,25.7,148.3,25.7z M147.9,25.5
				c0,0,0,0.1-0.1,0.1h0.3c0,0,0-0.1-0.1-0.1c0,0-0.1,0-0.1,0C147.9,25.4,147.9,25.4,147.9,25.5z"/>
			<path fill="#425D74" d="M149.4,25.7h-0.5c0,0,0,0.1,0.1,0.1s0.1,0,0.1,0c0.1,0,0.1,0,0.2-0.1l0.1,0.1c0,0-0.1,0.1-0.1,0.1
				c0,0-0.1,0-0.1,0c-0.1,0-0.1,0-0.2,0c0,0-0.1-0.1-0.1-0.1c0,0,0-0.1,0-0.2c0-0.1,0-0.1,0-0.2c0,0,0.1-0.1,0.1-0.1
				c0,0,0.1,0,0.2,0c0.1,0,0.1,0,0.2,0c0,0,0.1,0.1,0.1,0.1C149.4,25.5,149.4,25.6,149.4,25.7C149.4,25.6,149.4,25.7,149.4,25.7z
				 M149,25.5c0,0,0,0.1-0.1,0.1h0.3c0,0,0-0.1-0.1-0.1c0,0-0.1,0-0.1,0C149.1,25.4,149,25.4,149,25.5z M149.2,25.1h0.2l-0.2,0.2
				H149L149.2,25.1z"/>
			<path fill="#425D74" d="M149.7,25.9c0,0-0.1-0.1-0.1-0.1c0,0,0-0.1,0-0.2c0-0.1,0-0.1,0-0.2c0,0,0.1-0.1,0.1-0.1c0,0,0.1,0,0.2,0
				c0.1,0,0.1,0,0.2,0c0,0,0.1,0.1,0.1,0.1l-0.1,0.1c0,0,0,0-0.1-0.1c0,0-0.1,0-0.1,0c-0.1,0-0.1,0-0.1,0.1s-0.1,0.1-0.1,0.1
				c0,0.1,0,0.1,0.1,0.1c0,0,0.1,0.1,0.1,0.1c0,0,0.1,0,0.1,0c0,0,0,0,0.1-0.1l0.1,0.1c0,0-0.1,0.1-0.1,0.1c0,0-0.1,0-0.2,0
				C149.8,25.9,149.8,25.9,149.7,25.9z"/>
			<path fill="#425D74" d="M150.4,25.9c0,0-0.1-0.1-0.1-0.1c0,0,0-0.1,0-0.2c0-0.1,0-0.1,0-0.2c0,0,0.1-0.1,0.1-0.1c0,0,0.1,0,0.2,0
				c0.1,0,0.1,0,0.2,0s0.1,0.1,0.1,0.1c0,0,0,0.1,0,0.2c0,0.1,0,0.1,0,0.2c0,0-0.1,0.1-0.1,0.1c0,0-0.1,0-0.2,0
				C150.5,25.9,150.5,25.9,150.4,25.9z M150.7,25.8c0,0,0.1-0.1,0.1-0.1c0-0.1,0-0.1-0.1-0.1c0,0-0.1-0.1-0.1-0.1
				c-0.1,0-0.1,0-0.1,0.1c0,0,0,0.1,0,0.1s0,0.1,0,0.1c0,0,0.1,0.1,0.1,0.1S150.7,25.8,150.7,25.8z"/>
			<path fill="#425D74" d="M151.1,25.1h0.1v0.8h-0.1V25.1z"/>
			<path fill="#425D74" d="M151.6,25.9c0,0-0.1-0.1-0.1-0.1c0,0,0-0.1,0-0.2c0-0.1,0-0.1,0-0.2c0,0,0.1-0.1,0.1-0.1c0,0,0.1,0,0.2,0
				c0.1,0,0.1,0,0.2,0s0.1,0.1,0.1,0.1c0,0,0,0.1,0,0.2c0,0.1,0,0.1,0,0.2c0,0-0.1,0.1-0.1,0.1c0,0-0.1,0-0.2,0
				C151.7,25.9,151.6,25.9,151.6,25.9z M151.9,25.8c0,0,0.1-0.1,0.1-0.1c0-0.1,0-0.1-0.1-0.1c0,0-0.1-0.1-0.1-0.1
				c-0.1,0-0.1,0-0.1,0.1c0,0,0,0.1,0,0.1s0,0.1,0,0.1c0,0,0.1,0.1,0.1,0.1S151.9,25.8,151.9,25.8z"/>
			<path fill="#425D74" d="M152.9,25.3v0.5c0,0.2-0.1,0.3-0.3,0.3c-0.1,0-0.1,0-0.2,0c-0.1,0-0.1,0-0.1-0.1l0.1-0.1
				c0,0,0.1,0,0.1,0.1c0,0,0.1,0,0.1,0c0.1,0,0.1,0,0.1,0s0-0.1,0-0.1v0c0,0-0.1,0-0.1,0.1c0,0-0.1,0-0.1,0c-0.1,0-0.1,0-0.2,0
				c0,0-0.1-0.1-0.1-0.1c0,0,0-0.1,0-0.1c0-0.1,0-0.1,0-0.1c0,0,0.1-0.1,0.1-0.1c0,0,0.1,0,0.2,0c0,0,0.1,0,0.1,0c0,0,0.1,0,0.1,0.1
				v-0.1L152.9,25.3L152.9,25.3z M152.7,25.7c0,0,0.1-0.1,0.1-0.1c0,0,0-0.1-0.1-0.1c0,0-0.1,0-0.1,0c-0.1,0-0.1,0-0.1,0
				c0,0-0.1,0.1-0.1,0.1c0,0.1,0,0.1,0.1,0.1c0,0,0.1,0,0.1,0C152.6,25.8,152.6,25.8,152.7,25.7z"/>
			<path fill="#425D74" d="M153.1,25.2C153.1,25.2,153.1,25.2,153.1,25.2c0-0.1,0-0.1,0-0.1c0,0,0,0,0.1,0c0,0,0,0,0.1,0
				c0,0,0,0,0,0.1c0,0,0,0,0,0.1C153.2,25.2,153.2,25.2,153.1,25.2C153.2,25.2,153.1,25.2,153.1,25.2z M153.1,25.3h0.1v0.6h-0.1
				V25.3z"/>
			<path fill="#425D74" d="M154.1,25.3v0.8h-0.1v-0.3c0,0.1-0.1,0.1-0.2,0.1c-0.1,0-0.1,0-0.2,0c0,0-0.1-0.1-0.1-0.1
				c0,0,0-0.1,0-0.2c0-0.1,0-0.1,0-0.2c0,0,0.1-0.1,0.1-0.1c0,0,0.1,0,0.2,0c0,0,0.1,0,0.1,0c0,0,0.1,0,0.1,0.1v-0.1L154.1,25.3
				L154.1,25.3z M153.9,25.8c0,0,0.1-0.1,0.1-0.1c0-0.1,0-0.1-0.1-0.1c0,0-0.1-0.1-0.1-0.1c-0.1,0-0.1,0-0.1,0.1c0,0,0,0.1,0,0.1
				s0,0.1,0,0.1c0,0,0.1,0.1,0.1,0.1C153.8,25.8,153.9,25.8,153.9,25.8z"/>
			<path fill="#425D74" d="M154.9,25.3v0.6h-0.1v-0.1c0,0-0.1,0-0.1,0.1c0,0-0.1,0-0.1,0c-0.1,0-0.1,0-0.2-0.1c0,0-0.1-0.1-0.1-0.2
				v-0.3h0.1v0.3c0,0.1,0,0.1,0,0.1c0,0,0.1,0,0.1,0c0,0,0.1,0,0.1,0c0,0,0-0.1,0-0.1v-0.3H154.9z"/>
			<path fill="#425D74" d="M155.7,25.7h-0.5c0,0,0,0.1,0.1,0.1s0.1,0,0.1,0c0.1,0,0.1,0,0.2-0.1l0.1,0.1c0,0-0.1,0.1-0.1,0.1
				s-0.1,0-0.1,0c-0.1,0-0.1,0-0.2,0s-0.1-0.1-0.1-0.1c0,0,0-0.1,0-0.2c0-0.1,0-0.1,0-0.2c0,0,0.1-0.1,0.1-0.1c0,0,0.1,0,0.2,0
				c0.1,0,0.1,0,0.2,0c0,0,0.1,0.1,0.1,0.1C155.7,25.5,155.7,25.6,155.7,25.7C155.7,25.6,155.7,25.7,155.7,25.7z M155.3,25.5
				c0,0,0,0.1-0.1,0.1h0.3c0,0,0-0.1-0.1-0.1c0,0-0.1,0-0.1,0C155.4,25.4,155.3,25.4,155.3,25.5z"/>
			<path fill="#425D74" d="M156.8,25.4c0,0,0.1,0.1,0.1,0.2v0.3h-0.1v-0.3c0-0.1,0-0.1,0-0.1c0,0-0.1,0-0.1,0c0,0-0.1,0-0.1,0
				c0,0,0,0.1,0,0.1v0.3h-0.1v-0.3c0-0.1,0-0.1,0-0.1c0,0-0.1,0-0.1,0c0,0-0.1,0-0.1,0s0,0.1,0,0.1v0.3h-0.1v-0.6h0.1v0.1
				c0,0,0.1,0,0.1-0.1s0.1,0,0.1,0c0,0,0.1,0,0.1,0s0.1,0,0.1,0.1c0,0,0.1-0.1,0.1-0.1c0,0,0.1,0,0.1,0
				C156.7,25.3,156.8,25.3,156.8,25.4z"/>
			<path fill="#425D74" d="M157.7,25.7h-0.5c0,0,0,0.1,0.1,0.1s0.1,0,0.1,0c0.1,0,0.1,0,0.2-0.1l0.1,0.1c0,0-0.1,0.1-0.1,0.1
				c0,0-0.1,0-0.1,0c-0.1,0-0.1,0-0.2,0s-0.1-0.1-0.1-0.1c0,0,0-0.1,0-0.2c0-0.1,0-0.1,0-0.2s0.1-0.1,0.1-0.1c0,0,0.1,0,0.2,0
				c0.1,0,0.1,0,0.2,0c0,0,0.1,0.1,0.1,0.1C157.7,25.5,157.7,25.6,157.7,25.7C157.7,25.6,157.7,25.7,157.7,25.7z M157.3,25.5
				c0,0,0,0.1-0.1,0.1h0.3c0,0,0-0.1-0.1-0.1c0,0-0.1,0-0.1,0C157.4,25.4,157.3,25.4,157.3,25.5z"/>
			<path fill="#425D74" d="M158.4,25.4c0,0,0.1,0.1,0.1,0.2v0.3h-0.1v-0.3c0-0.1,0-0.1,0-0.1c0,0-0.1,0-0.1,0c-0.1,0-0.1,0-0.1,0
				c0,0,0,0.1,0,0.1v0.3h-0.1v-0.6h0.1v0.1c0,0,0.1,0,0.1-0.1c0,0,0.1,0,0.1,0C158.3,25.3,158.4,25.3,158.4,25.4z"/>
			<path fill="#425D74" d="M159.1,25.9C159.1,25.9,159.1,25.9,159.1,25.9c-0.1,0-0.1,0-0.1,0c-0.1,0-0.1,0-0.2-0.1s-0.1-0.1-0.1-0.1
				v-0.3h-0.1v-0.1h0.1v-0.1h0.1v0.1h0.2v0.1h-0.2v0.3c0,0,0,0.1,0,0.1c0,0,0,0,0.1,0C159,25.8,159,25.8,159.1,25.9L159.1,25.9z"/>
			<path fill="#425D74" d="M160.1,25.4c0,0,0.1,0.1,0.1,0.1c0,0,0,0.1,0,0.2c0,0.1,0,0.1,0,0.2c0,0-0.1,0.1-0.1,0.1s-0.1,0-0.2,0
				c0,0-0.1,0-0.1,0c0,0-0.1,0-0.1-0.1v0.1h-0.1v-0.8h0.1v0.3c0,0,0.1,0,0.1-0.1c0,0,0.1,0,0.1,0C160,25.3,160.1,25.3,160.1,25.4z
				 M160.1,25.8c0,0,0-0.1,0-0.1c0-0.1,0-0.1,0-0.1c0,0-0.1-0.1-0.1-0.1c0,0-0.1,0-0.1,0c0,0,0,0-0.1,0.1c0,0,0,0.1,0,0.1
				c0,0,0,0.1,0,0.1c0,0,0,0,0.1,0.1c0,0,0.1,0,0.1,0C160,25.8,160.1,25.8,160.1,25.8z"/>
			<path fill="#425D74" d="M160.8,25.3v0.1c0,0,0,0,0,0c-0.1,0-0.1,0-0.1,0c0,0,0,0.1,0,0.1v0.3h-0.1v-0.6h0.1v0.1
				C160.7,25.4,160.7,25.3,160.8,25.3z"/>
			<path fill="#425D74" d="M161,25.2C161,25.2,161,25.2,161,25.2c0-0.1,0-0.1,0-0.1c0,0,0,0,0.1,0c0,0,0,0,0.1,0c0,0,0,0,0,0.1
				c0,0,0,0,0,0.1C161.1,25.2,161.1,25.2,161,25.2C161.1,25.2,161,25.2,161,25.2z M161,25.3h0.1v0.6H161V25.3z"/>
			<path fill="#425D74" d="M161.4,25.1h0.1v0.8h-0.1V25.1z"/>
			<path fill="#425D74" d="M161.8,25.1h0.1v0.8h-0.1V25.1z"/>
			<path fill="#425D74" d="M162.6,25.4c0,0,0.1,0.1,0.1,0.2v0.3h-0.1v-0.1c0,0,0,0-0.1,0.1c0,0-0.1,0-0.1,0s-0.1,0-0.1,0
				c0,0-0.1,0-0.1-0.1c0,0,0-0.1,0-0.1c0-0.1,0-0.1,0.1-0.1c0,0,0.1,0,0.2,0h0.2v0c0,0,0-0.1,0-0.1c0,0-0.1,0-0.1,0c0,0-0.1,0-0.1,0
				s-0.1,0-0.1,0l-0.1-0.1c0,0,0.1,0,0.1-0.1c0,0,0.1,0,0.1,0C162.5,25.3,162.6,25.3,162.6,25.4z M162.5,25.8
				C162.5,25.8,162.5,25.8,162.5,25.8l0.1-0.1h-0.1c-0.1,0-0.1,0-0.1,0.1c0,0,0,0,0,0.1C162.3,25.8,162.4,25.8,162.5,25.8
				C162.4,25.8,162.5,25.8,162.5,25.8z"/>
			<path fill="#425D74" d="M163.4,25.4c0,0,0.1,0.1,0.1,0.2v0.3h-0.1v-0.3c0-0.1,0-0.1,0-0.1c0,0-0.1,0-0.1,0c-0.1,0-0.1,0-0.1,0
				c0,0,0,0.1,0,0.1v0.3h-0.1v-0.6h0.1v0.1c0,0,0.1,0,0.1-0.1c0,0,0.1,0,0.1,0C163.3,25.3,163.4,25.3,163.4,25.4z"/>
			<path fill="#425D74" d="M164.1,25.9C164.1,25.9,164.1,25.9,164.1,25.9c-0.1,0-0.1,0-0.1,0c-0.1,0-0.1,0-0.2-0.1
				c0,0-0.1-0.1-0.1-0.1v-0.3h-0.1v-0.1h0.1v-0.1h0.1v0.1h0.2v0.1h-0.2v0.3c0,0,0,0.1,0,0.1c0,0,0,0,0.1,0
				C164,25.8,164.1,25.8,164.1,25.9L164.1,25.9z"/>
			<path fill="#425D74" d="M164.7,25.9C164.7,25.9,164.6,25.9,164.7,25.9c0-0.1,0-0.1,0-0.1c0,0,0,0,0.1,0c0,0,0,0,0.1,0
				c0,0,0,0,0,0.1c0,0,0,0,0,0.1C164.8,25.9,164.8,25.9,164.7,25.9C164.7,25.9,164.7,25.9,164.7,25.9z M164.7,25.1h0.2l0,0.5h-0.1
				L164.7,25.1z"/>
		</g>
	</g>
</g>
</svg>
